<svg id="Ebene_1" data-name="Ebene 1" xmlns="http://www.w3.org/2000/svg" viewBox="0 0 440.46 273.98"><defs><style>.cls-1{fill:#efefef;}.cls-2{fill:#6d699c;opacity:0.2;}.cls-3{fill:#0a0a16;}.cls-4{opacity:0.7;}.cls-5{fill:#030307;}.cls-6{fill:#fff;}.cls-7{fill:#2d2d3d;}.cls-8{fill:#b7b7bc;}.cls-9{fill:#8a8a96;}.cls-10{fill:#a5a5ad;}.cls-11{fill:#0a6bbe;}</style></defs><title>astronaut</title><g id="leg_right"><path class="cls-1" d="M361.28,66.44l2.54,20.63a15.83,15.83,0,0,1-10,16.71l-39.29,15.16a28.26,28.26,0,0,1-12.78,1.78l-41.63-3.88-5.44-.51L241,85.33l10.12-9.16a25,25,0,0,1,11.79-6,30.86,30.86,0,0,1,17.42,1.21c12.67,5,19,17.67,19,17.67l28.29-8.66s0,0,0,0l-.74-7.83Z"/><path class="cls-2" d="M371.75,24.08a28.17,28.17,0,0,1-7.93,3.74A26.93,26.93,0,0,1,356.66,29l3.1,25.13,4.06,32.94a15.83,15.83,0,0,1-10,16.71l-39.29,15.16a28.26,28.26,0,0,1-12.78,1.78l-41.63-3.88c2.29-5.08,7.43-12,18.73-14,15.25-2.75,21.25,7,21.25,7l50.3-19a4.37,4.37,0,0,0,2.79-4.61L350,59.37l-3.37-28a7.39,7.39,0,0,1,5.29-8l4.41-1.27a4.58,4.58,0,0,0,3.16-5.57l-.26-1-1.1-4.2,5.51-3,3.47-1.91,7.12-3.93c1.58.59,2.54,1.37,2.74,2.36v0C377.84,7.07,381.37,17.44,371.75,24.08Z"/><path class="cls-3" d="M371.75,24.08a28.17,28.17,0,0,1-7.93,3.74A26.93,26.93,0,0,1,356.66,29l3.1,25.13,1.76,14.26a32.46,32.46,0,0,1-9.9,4.92,45,45,0,0,1-6.29,1.52A34.06,34.06,0,0,1,327,73L321.46,16.5l45.6-10.11,9.69-2s.07.14.17.41v0C377.84,7.07,381.37,17.44,371.75,24.08Z"/><path class="cls-4" d="M371.75,24.08a28.17,28.17,0,0,1-7.93,3.74A26.93,26.93,0,0,1,356.66,29l3.1,25.13,1.76,14.26a32.46,32.46,0,0,1-9.9,4.92L350,59.37l-3.37-28a7.39,7.39,0,0,1,5.29-8l4.41-1.27a4.58,4.58,0,0,0,3.16-5.57l-.26-1-1.1-4.2,5.51-3,3.47-1.91,7.12-3.93c1.58.59,2.54,1.37,2.74,2.36v0C377.84,7.07,381.37,17.44,371.75,24.08Z"/><path class="cls-5" d="M376.91,5.68c-.65,3.05-7.7,6.87-17.73,9.85-3.24,1-6.78,1.84-10.53,2.57-15.29,3-24.46,2.58-26.84-.8a2,2,0,0,1-.35-.8c-.81-4.11,7.85-10,24.27-13.27C358.18.79,369.22.61,374.18,2.46c1.58.59,2.54,1.37,2.74,2.36v0A2,2,0,0,1,376.91,5.68Z"/></g><g id="leg_left"><path class="cls-6" d="M394.3,75l-12,33.34a34.53,34.53,0,0,1-6,8c-4,4-13,6-13,6l-62,19-88,37-29.31-47-2.19-3.52,2.26-1.07,39-18.48,53.73-25.45s12-1,21,3a37.3,37.3,0,0,1,14,11l38-11,8.84-23.42,22.93,8.1Z"/><path class="cls-2" d="M440.45,17.21c-1.28,4.15-3.32,8.81-8.95,12.62-6.17,4.17-20.5,0-20.5,0L405.06,45,394.3,75l-12,33.34a34.53,34.53,0,0,1-6,8c-4,4-13,6-13,6l-62,19-88,37L193,145.72l31.43-13.13a5.72,5.72,0,0,0,.67,1.27l5.23,7.4a5.49,5.49,0,0,0,6.57,1.91l34.95-14.34a27.67,27.67,0,0,0,7-4c4-3,11-13,20-14s14,2,16,7l47.77-11.5a12.06,12.06,0,0,0,8.47-7.51l8.36-22.48,2.17-5.83,6.55-17.6L399.2,23.2a5.05,5.05,0,0,1,6.12-3.09l5.33,1.52a5.24,5.24,0,0,0,6.13-2.69l.63-1.26.59-1.19a5.5,5.5,0,0,1,5.86-3l12.77,2.22c1.56.28,3,.2,3.78,1.4Z"/><path class="cls-3" d="M440.45,17.21c-1.28,4.15-3.32,8.81-8.95,12.62-6.17,4.17-20.5,0-20.5,0L405.06,45,393.77,76.44a33.3,33.3,0,0,1-14.34-.1l-.11,0A39.37,39.37,0,0,1,373,74.41c-10-4-13.61-10-14.45-11.69-.16-.31,21.78-58.22,22.78-60.39s2.81-2.61,24.31,2.56,25.19,5.75,31.13,9.44C437.12,14.55,440.59,16.8,440.45,17.21Z"/><path class="cls-4" d="M440.45,17.21c-1.28,4.15-3.32,8.81-8.95,12.62-6.17,4.17-20.5,0-20.5,0L405.06,45,393.77,76.44a33.3,33.3,0,0,1-14.34-.1l2.17-5.83,6.55-17.6L399.2,23.2a5.05,5.05,0,0,1,6.12-3.09l5.33,1.52a5.24,5.24,0,0,0,6.13-2.69L418,16.49a5.5,5.5,0,0,1,5.86-3l12.77,2.22C438.22,16,439.67,16,440.45,17.21Z"/><ellipse class="cls-5" cx="410.91" cy="9.74" rx="6.29" ry="30.44" transform="translate(298.89 405.2) rotate(-75.54)"/></g><g id="backpack"><path class="cls-3" d="M288.91,87.75l-64.14,26.51-18.52,7.65-.1-.16L186.33,88.33,198,83.68l52.07-20.81a2.48,2.48,0,0,1,2.41.28l36.27,24.48Z"/><path class="cls-5" d="M290.83,90.66v12a3.22,3.22,0,0,1-2,3L224.4,132.58l-12.57,5.25-5.68-16.08-.32-.92,19-7.81,61.55-25.35a3.19,3.19,0,0,1,2.37,0A3.24,3.24,0,0,1,290.83,90.66Z"/><path class="cls-4" d="M224.81,113c0,.14,0,.28,0,.42l0,.82-.69,16.2a5.47,5.47,0,0,0,.32,2.12l-12.57,5.25-5.68-16.08L186.33,88.33,198,83.68a53.47,53.47,0,0,1,14.85,11.15c5.71,6.19,8.7,10.56,10.27,13.45a19.22,19.22,0,0,1,1.48,3.36A5.39,5.39,0,0,1,224.81,113Z"/></g><g id="arm_right"><path class="cls-6" d="M132.25,158.91l-10.38-1-15.55,1.33a1.69,1.69,0,0,0-1.77,1.16l-4.33,13.39-29.39-3.66,10.58-30.2A14.61,14.61,0,0,1,92,130.45l18.19-4.08Z"/><path class="cls-2" d="M119.93,158l-13.61,1.18a1.69,1.69,0,0,0-1.77,1.16l-5,15.35a.53.53,0,0,0,.62.68l.11,0a5,5,0,0,1,6,3.86l1.64,7.84a4.12,4.12,0,0,1-8.06,1.74v0l-.66-3.15a2.48,2.48,0,0,0-1.36-1.74l-1-.52L96,187.05a5.25,5.25,0,0,0,0,3l1.35,4.29a7,7,0,0,1-2.62,7.83,5.46,5.46,0,0,1-6-4l-2.67-10.33a14.09,14.09,0,0,1,.3-8.06l9.17-26.93a7.34,7.34,0,0,1,6.68-4.95l12.92-.44Z"/><path class="cls-3" d="M106.3,180.21l1.64,7.84a4.12,4.12,0,0,1-8.06,1.74v0l-.66-3.15a2.48,2.48,0,0,0-1.36-1.74l-1-.52L96,187.05a5.25,5.25,0,0,0,0,3l1.35,4.29a7,7,0,0,1-2.62,7.83,6.66,6.66,0,0,1-2,1L75.54,208.5a7.21,7.21,0,0,1-9.06-4.91L64.3,196a12.88,12.88,0,0,1,.23-7.84l6.3-18c4.23-3.94,9.42-6.78,15.28-6a17.59,17.59,0,0,1,5.15,1.5,21.57,21.57,0,0,1,9,8.19l-.63,2a.53.53,0,0,0,.62.68l.11,0,.5-.08a4.38,4.38,0,0,1,.5,0h.42a5,5,0,0,1,2.9,1.17,3.45,3.45,0,0,1,.28.26l.3.32c.07.09.15.18.22.28l.07.11a2,2,0,0,1,.19.28,4.21,4.21,0,0,1,.31.64,1.62,1.62,0,0,1,.13.33A3.83,3.83,0,0,1,106.3,180.21Z"/><path class="cls-4" d="M106.3,180.21l1.64,7.84a4.12,4.12,0,0,1-8.06,1.74v0l-.66-3.15a2.48,2.48,0,0,0-1.36-1.74l-1-.52L96,187.05a5.25,5.25,0,0,0,0,3l1.35,4.29a7,7,0,0,1-2.62,7.83,5.46,5.46,0,0,1-6-4l-2.67-10.33a14.09,14.09,0,0,1,.3-8.06l4.85-14.23a21.57,21.57,0,0,1,9,8.19l-.63,2a.53.53,0,0,0,.62.68l.11,0,.5-.08a4.38,4.38,0,0,1,.5,0h.42a5,5,0,0,1,2.9,1.17,3.45,3.45,0,0,1,.28.26l.3.32c.07.09.15.18.22.28l.07.11a2,2,0,0,1,.19.28,4.21,4.21,0,0,1,.31.64,1.62,1.62,0,0,1,.13.33A3.83,3.83,0,0,1,106.3,180.21Z"/></g><g id="laptop"><polygon class="cls-7" points="96.4 209.14 31.99 236.24 140.36 271.51 184.83 228.57 96.4 209.14"/><path class="cls-3" d="M117.52,216.09l23.38,5.15a.76.76,0,0,1,.25,1.38l-10.08,6.52a2.74,2.74,0,0,1-2.28.34L106.09,223a.76.76,0,0,1-.16-1.4l9.66-5.23A2.75,2.75,0,0,1,117.52,216.09Z"/><path class="cls-3" d="M151.31,242.88l2.87-2.38a1.57,1.57,0,0,1,1.45-.38l4.48,1.16a.72.72,0,0,1,.35,1.18l-2.78,2.44a1.58,1.58,0,0,1-1.58.45l-4.49-1.26A.72.72,0,0,1,151.31,242.88Z"/><path class="cls-3" d="M143.28,240.6l2.87-2.39a1.57,1.57,0,0,1,1.45-.38l4.48,1.17a.71.71,0,0,1,.35,1.17l-2.78,2.44a1.56,1.56,0,0,1-1.58.45l-4.49-1.26A.71.71,0,0,1,143.28,240.6Z"/><path class="cls-3" d="M135.31,238.32l2.74-2.32a1.54,1.54,0,0,1,1.39-.38l4.32,1.09a.69.69,0,0,1,.35,1.13l-2.66,2.37a1.5,1.5,0,0,1-1.51.44l-4.33-1.18A.68.68,0,0,1,135.31,238.32Z"/><path class="cls-3" d="M127.44,235.94l2.74-2.27a1.49,1.49,0,0,1,1.38-.37l4.28,1.12a.68.68,0,0,1,.34,1.12l-2.66,2.33a1.5,1.5,0,0,1-1.5.43l-4.29-1.21A.68.68,0,0,1,127.44,235.94Z"/><path class="cls-3" d="M120.13,233.77l2.56-2.14a1.44,1.44,0,0,1,1.3-.34l4,1.05a.64.64,0,0,1,.32,1l-2.49,2.18a1.38,1.38,0,0,1-1.41.4l-4-1.13A.63.63,0,0,1,120.13,233.77Z"/><path class="cls-3" d="M112.3,231.5l2.68-2.22a1.46,1.46,0,0,1,1.35-.36l4.18,1.09a.67.67,0,0,1,.33,1.1l-2.59,2.28a1.49,1.49,0,0,1-1.48.41l-4.19-1.17A.67.67,0,0,1,112.3,231.5Z"/><path class="cls-3" d="M142.17,246.62l2.87-2.38a1.57,1.57,0,0,1,1.45-.38L151,245a.71.71,0,0,1,.36,1.17l-2.79,2.44a1.55,1.55,0,0,1-1.57.45l-4.5-1.26A.72.72,0,0,1,142.17,246.62Z"/><path class="cls-3" d="M134.14,244.34,137,242a1.58,1.58,0,0,1,1.45-.38l4.48,1.17a.71.71,0,0,1,.36,1.17l-2.78,2.44a1.56,1.56,0,0,1-1.58.45l-4.5-1.26A.71.71,0,0,1,134.14,244.34Z"/><path class="cls-3" d="M126.17,242.06l2.74-2.32a1.54,1.54,0,0,1,1.39-.38l4.32,1.09a.69.69,0,0,1,.35,1.13L132.32,244a1.51,1.51,0,0,1-1.52.44l-4.33-1.18A.68.68,0,0,1,126.17,242.06Z"/><path class="cls-3" d="M118.3,239.78l2.64-2.19a1.45,1.45,0,0,1,1.33-.36l4.12,1.08a.66.66,0,0,1,.33,1.08l-2.56,2.24a1.43,1.43,0,0,1-1.45.41l-4.14-1.16A.65.65,0,0,1,118.3,239.78Z"/><path class="cls-3" d="M141.33,253l2.87-2.38a1.55,1.55,0,0,1,1.44-.38l4.48,1.17a.71.71,0,0,1,.36,1.17L147.7,255a1.56,1.56,0,0,1-1.58.45l-4.5-1.26A.71.71,0,0,1,141.33,253Z"/><path class="cls-3" d="M133.3,250.68l2.87-2.38a1.57,1.57,0,0,1,1.45-.39l4.47,1.17a.72.72,0,0,1,.36,1.18l-2.78,2.44a1.58,1.58,0,0,1-1.58.44l-4.49-1.26A.71.71,0,0,1,133.3,250.68Z"/><path class="cls-3" d="M125.33,248.4l2.73-2.31a1.52,1.52,0,0,1,1.39-.39l4.32,1.09a.68.68,0,0,1,.35,1.13l-2.65,2.37a1.5,1.5,0,0,1-1.51.44l-4.34-1.17A.69.69,0,0,1,125.33,248.4Z"/><path class="cls-3" d="M117.46,246l2.74-2.28a1.52,1.52,0,0,1,1.38-.36l4.27,1.11a.68.68,0,0,1,.34,1.12L123.54,248a1.49,1.49,0,0,1-1.51.43l-4.29-1.2A.68.68,0,0,1,117.46,246Z"/><path class="cls-3" d="M132.54,257.12l2.87-2.38a1.57,1.57,0,0,1,1.45-.38l4.48,1.17a.71.71,0,0,1,.35,1.17l-2.78,2.44a1.56,1.56,0,0,1-1.58.45l-4.49-1.26A.72.72,0,0,1,132.54,257.12Z"/><path class="cls-3" d="M124.51,254.84l2.87-2.38a1.57,1.57,0,0,1,1.45-.39l4.48,1.17a.72.72,0,0,1,.35,1.18l-2.78,2.44a1.58,1.58,0,0,1-1.58.44L124.81,256A.71.71,0,0,1,124.51,254.84Z"/><path class="cls-8" d="M32,236.24.25,174.68a2.19,2.19,0,0,1,2.3-3.16L107,188.89a6,6,0,0,1,4.64,3.86l28.71,78.76Z"/><path class="cls-9" d="M184.83,228.57a3.8,3.8,0,0,1-1.09,2.55l-41.41,41.32-1.09,1.09-.12.12a1.22,1.22,0,0,1-.61.33l-.15-2.47.11-.11Z"/><path class="cls-10" d="M140.68,273.57a1.23,1.23,0,0,1-.76,0h0L138.3,273,33.05,237.37a1.07,1.07,0,0,1-.86-.76l0-.79L140.32,271l.21.06Z"/><path class="cls-11" d="M51.85,216.85l11.5,2.79c-1.11,4.68-1.6,7-2.45,11.5,5.95-5.06,9.24-7.79,16.41-13.63l-11.79-2.65c1.23-4.72,1.91-7.12,3.4-12C61.48,208.83,58.07,211.63,51.85,216.85Z"/></g><g id="arm_left"><path class="cls-6" d="M232.36,220.36l-45.8,3.41L177,195.85l31-2,.94-.06-15.12-29.52,20.81-23.82,13.47,27,14.41,28.91,1.62,3.26A14.36,14.36,0,0,1,232.36,220.36Z"/><path class="cls-2" d="M228.2,167.75l-2.28-4.46a8.16,8.16,0,0,0-8.33-4.3,8,8,0,0,0-6.88,6.26,7.78,7.78,0,0,0,.38,4.57l6.73,17.2c1.05,2.53-.33,6.15-3,6.49l-6.77.34.94-.06-15.12-29.52,20.81-23.82,13.47,27Z"/><path class="cls-2" d="M232.36,220.36l-58.46,4.36a8.36,8.36,0,0,0-7.7,7.74,2.2,2.2,0,0,1,0,.37,2.58,2.58,0,0,1-2.31,2l-3.22.28a4.73,4.73,0,0,1-2.24-4.71l2-13.8a6.16,6.16,0,0,1,5.68-5.28l67.79-4.66a9.36,9.36,0,0,0,7.58-4.84,9.32,9.32,0,0,0,1.11-5.49l1.62,3.26A14.36,14.36,0,0,1,232.36,220.36Z"/><path class="cls-5" d="M152.47,199.35s-8.92-1.92-12.74,5.7,7.08,10.47,10.57,6.75S152.47,199.35,152.47,199.35Z"/><path class="cls-3" d="M186.56,223.77l-12.66.95a8.36,8.36,0,0,0-7.7,7.74,2.2,2.2,0,0,1,0,.37,2.58,2.58,0,0,1-2.31,2l-3.22.28-.21,0a6.62,6.62,0,0,1-5.61-2.32l-8.07-9.52A11.68,11.68,0,0,1,144.31,213l2.28-9.21a8.51,8.51,0,0,1,7.71-6.45L177,195.85c5.1,1.94,9.5,4.94,11.24,9.31a24.22,24.22,0,0,1,1.35,4.57A17.15,17.15,0,0,1,186.56,223.77Z"/><path class="cls-4" d="M186.56,223.77l-12.66.95a8.36,8.36,0,0,0-7.7,7.74,2.2,2.2,0,0,1,0,.37,2.58,2.58,0,0,1-2.31,2l-3.22.28a4.73,4.73,0,0,1-2.24-4.71l2-13.8a6.16,6.16,0,0,1,5.68-5.28l23.54-1.62A17.15,17.15,0,0,1,186.56,223.77Z"/></g><g id="head"><path class="cls-6" d="M214.08,123.58A54.84,54.84,0,0,1,178.16,175h0c-5.87,2.15-70.19-73.1-64.39-81.78a55,55,0,0,1,18-17,54.76,54.76,0,0,1,82.29,47.33Z"/><path class="cls-2" d="M204,134.08a58.91,58.91,0,0,1-8.55,30.67A54.56,54.56,0,0,1,178.16,175h0a54.76,54.76,0,0,1-46.36-98.76A59.28,59.28,0,0,1,204,134.08Z"/><path class="cls-5" d="M197.68,134.38A52,52,0,0,1,178.16,175s0,0,0,0a54.76,54.76,0,0,1-64.39-81.78,52,52,0,0,1,83.92,41.15Z"/><path class="cls-3" d="M184.73,168.72a52.1,52.1,0,0,1-6.57,6.29h0a54.76,54.76,0,0,1-64.39-81.78,51.73,51.73,0,0,1,11.69-6.83,51,51,0,0,0,59.28,82.32Z"/><path class="cls-2" d="M123.83,154.33s-16.5-21-9.75-41.25,28.75-28.5,39-14.25-2.25,28.25-9.5,28.5S122.08,126.58,123.83,154.33Z"/></g></svg>